<svg xmlns="http://www.w3.org/2000/svg" width="59.765" height="54.302" viewBox="0 0 59.765 54.302"><path d="M1127.786,4244.4c-3.056,4.812-2.431,14.392-15.234,13.339s-19.572,10.594-14.042,17.9,31.388,18.254,47.081-3.16,5.66-32.838-3.18-33.93S1130.842,4239.59,1127.786,4244.4Z" transform="translate(-1094.05 -4230.721)" fill="#e4efff"></path><path d="M33.5,24.968H2V7.559A4.559,4.559,0,0,1,6.559,3H28.942A4.559,4.559,0,0,1,33.5,7.559Z" transform="translate(1.316 6.116)" fill="#438ff9"></path><g transform="translate(0 29.012)"><path d="M36.475,18.316H1.658a1.658,1.658,0,1,1,0-3.316H36.475a1.658,1.658,0,1,1,0,3.316Z" transform="translate(0 -15)" fill="#438ff9"></path><path d="M6.6,29.824a1.656,1.656,0,0,1-1-2.117L9.742,16.1a1.657,1.657,0,0,1,3.122,1.114L8.72,28.821a1.657,1.657,0,0,1-2.119,1Z" transform="translate(3.619 -15)" fill="#438ff9"></path><path d="M17.241,28.82,13.1,17.215A1.657,1.657,0,0,1,16.219,16.1l4.145,11.606a1.657,1.657,0,0,1-3.122,1.114Z" transform="translate(8.553 -15)" fill="#438ff9"></path><path d="M12.158,26.606A1.657,1.657,0,0,1,10.5,24.948v-8.29a1.658,1.658,0,0,1,3.316,0v8.29A1.657,1.657,0,0,1,12.158,26.606Z" transform="translate(6.908 -15)" fill="#438ff9"></path></g><path d="M19.066,15H1.658a1.658,1.658,0,1,0,0,3.316H12.569L13.36,16.1a1.657,1.657,0,1,1,3.122,1.112l-.391,1.1h1.318V16.658A1.657,1.657,0,0,1,19.066,15Z" transform="translate(0 14.012)" fill="#438ff9"></path><path d="M11.3,15a1.659,1.659,0,0,0-1.562,1.1l-.791,2.215L5.6,27.707a1.655,1.655,0,0,0,1,2.117,1.637,1.637,0,0,0,.557.1,1.66,1.66,0,0,0,1.563-1.1l3.752-10.5.393-1.1A1.66,1.66,0,0,0,11.3,15Z" transform="translate(3.618 14.012)" fill="#438ff9"></path><g transform="translate(22.633 0)"><path d="M21.777,0A10.777,10.777,0,1,0,32.553,10.777,10.789,10.789,0,0,0,21.777,0Z" transform="translate(-11)" fill="#438ff9"></path><path d="M25.524,6l-5.8,6.632a1.656,1.656,0,0,1-2.419.081L13.986,9.4A1.658,1.658,0,1,1,16.33,7.051l2.062,2.062,4.636-5.3A1.657,1.657,0,0,1,25.524,6Z" transform="translate(-9.494 2.09)" fill="#fff"></path></g></svg>