<svg xmlns="http://www.w3.org/2000/svg" width="121.189" height="99.755" viewBox="0 0 121.189 99.755"><g transform="translate(11 16.384)"><path d="M147.546,215.179a2.854,2.854,0,0,1-.714-.089L121,208.632v21.113c0,8.422,22.113,8.849,26.546,8.849s26.546-.426,26.546-8.849V208.632l-25.831,6.457A2.852,2.852,0,0,1,147.546,215.179Z" transform="translate(-97.207 -179.602)" fill="#438ff9"></path><path d="M94.778,116.564V79.522l3.664-.916a2.948,2.948,0,0,0,0-5.72l-47.389-11.8a2.859,2.859,0,0,0-1.429,0L2.235,72.886a2.948,2.948,0,0,0,0,5.72L49.624,90.4a2.9,2.9,0,0,0,1.429,0L88.879,81v35.567L83.133,133.8a3.021,3.021,0,0,0,2.8,3.883h11.8a3.027,3.027,0,0,0,2.8-3.883Z" transform="translate(0 -60.997)" fill="#438ff9"></path><path d="M-2072.8,2003.961c-18.081,19.964-13.141,28.2-24.812,32.441s-41.143-.722-45.6,24.954,31.405,39.893,65.357,31.617,53.547-35.114,55.384-62.81S-2054.717,1984-2072.8,2003.961Z" transform="translate(2132.584 -2011.96)" fill="#438ff9" opacity="0.1"></path></g></svg>