<svg xmlns="http://www.w3.org/2000/svg" width="121.4" height="99.929" viewBox="0 0 121.4 99.929"><g transform="translate(22 16.412)"><path d="M77.485,420.558v5.166a4.564,4.564,0,0,1-4.558,4.558H4.558A4.564,4.564,0,0,1,0,425.724v-5.166A4.564,4.564,0,0,1,4.558,416H72.927A4.564,4.564,0,0,1,77.485,420.558Z" transform="translate(0 -352.796)" fill="#438ff9"></path><path d="M48,196v28.867h62.9V196H96.618v23.7H86.591V196H72.309v23.7H62.282V196Z" transform="translate(-40.707 -166.221)" fill="#438ff9"></path><path d="M2.29,25.221H75.217a2.281,2.281,0,0,0,1.124-4.262L39.877.3A2.279,2.279,0,0,0,37.63.3L1.166,20.959A2.281,2.281,0,0,0,2.29,25.221Z" transform="translate(-0.011 0)" fill="#438ff9"></path><path d="M-2072.673,2003.975c-18.112,20-13.164,28.247-24.855,32.5s-41.215-.723-45.678,25,31.46,39.962,65.471,31.672a79.17,79.17,0,0,0,20.936-8.334,68.465,68.465,0,0,0,34.545-54.586C-2020.416,2002.479-2054.561,1983.976-2072.673,2003.975Z" transform="translate(2121.584 -2011.988)" fill="#438ff9" opacity="0.1"></path></g></svg>