<svg xmlns="http://www.w3.org/2000/svg" width="66.058" height="54.302" viewBox="0 0 66.058 54.302"><g transform="translate(0)"><path d="M1127.786,4244.4c-3.056,4.812-2.431,14.392-15.234,13.339s-19.572,10.594-14.042,17.9,31.388,18.254,47.081-3.16,5.66-32.838-3.18-33.93S1130.842,4239.59,1127.786,4244.4Z" transform="translate(-1087.757 -4230.721)" fill="#e4efff"></path><path d="M219.573,0H197.439A4.637,4.637,0,0,0,192.8,4.638v10.9l3.614,1.8,1.805-3.612a4.428,4.428,0,1,1,7.921,3.961l-3.218,6.438a6.724,6.724,0,0,1-.231,2.543h2.125l-5.6,15.41a1.476,1.476,0,1,0,2.774,1.009l5.971-16.419h1.034l6.032,16.424a1.476,1.476,0,0,0,2.771-1.017l-5.658-15.407h7.435a4.638,4.638,0,0,0,4.637-4.638V4.638A4.638,4.638,0,0,0,219.573,0ZM216.41,20.343h-6.622a1.476,1.476,0,0,1,0-2.952h6.622a1.476,1.476,0,0,1,0,2.952Zm0-5.534h-6.622a1.476,1.476,0,0,1,0-2.952h6.622a1.476,1.476,0,0,1,0,2.952Zm0-5.533H200.6a1.476,1.476,0,0,1,0-2.952H216.41a1.476,1.476,0,0,1,0,2.952Zm0,0" transform="translate(-173.829)" fill="#438ff9"></path><path d="M25.97,53.081a3.816,3.816,0,0,0,.04-2.343l3.663-7.325a1.476,1.476,0,1,0-2.64-1.32L23.908,48.34l-6.99-3.477c-2.126-1.057-3.644-2.006-6.233-2.006h-1.3A6.43,6.43,0,1,0,4.7,40.835a6.413,6.413,0,0,0,4.681,2.023A9.428,9.428,0,0,0,2.75,45.6,9.307,9.307,0,0,0,0,52.239v4.743a4.646,4.646,0,0,0,3.162,4.4v8.25a1.476,1.476,0,0,0,1.476,1.476h9.486A1.476,1.476,0,0,0,15.6,69.629V53.045l4.726,2.363A4.043,4.043,0,0,0,25.964,53.1l.006-.017Zm0,0" transform="translate(0 -27.048)" fill="#438ff9"></path></g></svg>