<svg xmlns="http://www.w3.org/2000/svg" width="121.189" height="99.755" viewBox="0 0 121.189 99.755"><g transform="translate(23 16.383)"><path d="M288.766,385.641c5.47-1.15,10.328-7.143,13.486-15.714a38.074,38.074,0,0,0-13.486-3.172Zm0,0" transform="translate(-248.614 -309.376)" fill="#438ff9"></path><path d="M331.757,398.839c.481-.192.958-.406,1.426-.615.613-.272,1.224-.546,1.824-.852.468-.238.926-.5,1.386-.753.575-.326,1.15-.661,1.725-1.017.448-.284.887-.575,1.324-.885.55-.384,1.091-.766,1.622-1.185q.634-.493,1.253-1.012c.238-.192.464-.416.7-.621a38.3,38.3,0,0,0-6.374-4.528,36.654,36.654,0,0,1-7.3,12.307c.161-.05.322-.1.483-.157C330.471,399.3,331.119,399.089,331.757,398.839Zm0,0" transform="translate(-279.469 -325.054)" fill="#438ff9"></path><path d="M383.071,294.395H367.782a71.553,71.553,0,0,1-2.762,18.574,42.014,42.014,0,0,1,7.843,5.573,37.869,37.869,0,0,0,10.209-24.147Zm0,0" transform="translate(-306.601 -254.351)" fill="#438ff9"></path><path d="M288.766,127.234v18.877a38.093,38.093,0,0,0,13.486-3.172C299.094,134.377,294.236,128.375,288.766,127.234Zm0,0" transform="translate(-248.614 -127.234)" fill="#438ff9"></path><path d="M288.766,307.9a41.954,41.954,0,0,1,14.693,3.329,67.612,67.612,0,0,0,2.505-16.836h-17.2Zm0,0" transform="translate(-248.614 -254.35)" fill="#438ff9"></path><path d="M343.006,141.822c-.238-.21-.468-.428-.707-.629q-.609-.512-1.232-.995c-.538-.415-1.086-.814-1.642-1.2-.431-.3-.867-.592-1.307-.872-.575-.36-1.149-.7-1.741-1.029-.453-.253-.907-.509-1.369-.743-.6-.307-1.22-.576-1.84-.859-.469-.207-.935-.421-1.414-.609-.64-.253-1.293-.47-1.947-.688l-.474-.153a36.655,36.655,0,0,1,7.3,12.307,38.3,38.3,0,0,0,6.374-4.528Zm0,0" transform="translate(-279.462 -132.412)" fill="#438ff9"></path><path d="M288.766,224.95h17.2a67.611,67.611,0,0,0-2.505-16.836,41.953,41.953,0,0,1-14.693,3.329Zm0,0" transform="translate(-248.614 -188.739)" fill="#438ff9"></path><path d="M372.862,177.594a42.01,42.01,0,0,1-7.843,5.579,71.51,71.51,0,0,1,2.762,18.568h15.289a37.856,37.856,0,0,0-10.209-24.147Zm0,0" transform="translate(-306.601 -165.53)" fill="#438ff9"></path><path d="M121.156,201.742h15.289a71.551,71.551,0,0,1,2.761-18.574,42.051,42.051,0,0,1-7.842-5.573,37.864,37.864,0,0,0-10.209,24.147Zm0,0" transform="translate(-121.156 -165.53)" fill="#438ff9"></path><path d="M229.955,385.67V366.793a38.086,38.086,0,0,0-13.486,3.163C219.627,378.518,224.486,384.52,229.955,385.67Zm0,0" transform="translate(-193.636 -309.406)" fill="#438ff9"></path><path d="M218.171,294.395h-17.2a67.613,67.613,0,0,0,2.505,16.836,41.95,41.95,0,0,1,14.693-3.329Zm0,0" transform="translate(-181.852 -254.351)" fill="#438ff9"></path><path d="M229.955,127.234c-5.469,1.15-10.328,7.143-13.486,15.715a38.1,38.1,0,0,0,13.486,3.162Zm0,0" transform="translate(-193.636 -127.234)" fill="#438ff9"></path><path d="M218.171,211.443a41.95,41.95,0,0,1-14.693-3.329,67.61,67.61,0,0,0-2.505,16.836h17.2Zm0,0" transform="translate(-181.852 -188.738)" fill="#438ff9"></path><path d="M188.784,134.043c-.161.05-.322.1-.483.157-.649.216-1.3.431-1.935.682-.481.192-.958.406-1.426.615-.613.272-1.224.546-1.825.852-.467.238-.925.5-1.385.752-.576.327-1.15.662-1.725,1.018-.449.284-.888.575-1.325.885-.549.384-1.09.766-1.621,1.185q-.636.49-1.254,1.012c-.238.192-.463.416-.7.621a38.256,38.256,0,0,0,6.374,4.528,36.658,36.658,0,0,1,7.3-12.307Zm0,0" transform="translate(-162.184 -132.412)" fill="#438ff9"></path><path d="M177.057,393.523q.806.623,1.644,1.2c.431.3.862.592,1.3.872.576.36,1.15.7,1.742,1.029.454.253.907.509,1.368.743.6.307,1.221.576,1.84.859.47.207.936.421,1.415.609.64.253,1.293.47,1.947.688l.473.153a36.669,36.669,0,0,1-7.3-12.307,38.256,38.256,0,0,0-6.374,4.528c.238.209.468.428.707.629q.609.512,1.232.995Zm0,0" transform="translate(-162.191 -325.054)" fill="#438ff9"></path><path d="M131.365,318.542a42.035,42.035,0,0,1,7.842-5.579,71.547,71.547,0,0,1-2.761-18.568H121.156a37.859,37.859,0,0,0,10.209,24.147Zm0,0" transform="translate(-121.156 -254.35)" fill="#438ff9"></path><path d="M-2072.8,2003.961c-18.081,19.964-13.141,28.2-24.812,32.441s-41.143-.722-45.6,24.954,31.405,39.893,65.357,31.617,53.547-35.114,55.384-62.81S-2054.717,1984-2072.8,2003.961Z" transform="translate(2120.584 -2011.959)" fill="#438ff9" opacity="0.1"></path></g></svg>