<svg xmlns="http://www.w3.org/2000/svg" width="61.024" height="54.302" viewBox="0 0 61.024 54.302"><path d="M1127.786,4244.4c-3.056,4.812-2.431,14.392-15.234,13.339s-19.572,10.594-14.042,17.9,31.388,18.254,47.081-3.16,5.66-32.838-3.18-33.93S1130.842,4239.59,1127.786,4244.4Z" transform="translate(-1092.791 -4230.721)" fill="#e4efff"></path><path d="M244.015,242.127c0-.265-.09-.994-.809-.994h-1.491v1.974h1.491C243.918,243.107,244.015,242.392,244.015,242.127Z" transform="translate(-226.528 -220.624)" fill="#F32423"></path><path d="M133.7,253.786h2.073l-1.037-3.806Z" transform="translate(-127.698 -228.719)" fill="#F32423"></path><path d="M243.135,284.374h-1.42v2.84h1.42q1.136,0,1.136-1.306v-.227Q244.271,284.374,243.135,284.374Z" transform="translate(-226.528 -260.187)" fill="#F32423"></path><path d="M80.913,7.056H106.9A1.393,1.393,0,0,0,108.3,5.663V1.393A1.393,1.393,0,0,0,106.9,0H80.913a2.791,2.791,0,0,0-2.791,2.791V4.266a2.791,2.791,0,0,0,2.791,2.791Z" transform="translate(-76.849)" fill="#F32423"></path><path d="M67.221,92.634a5.325,5.325,0,0,1-4.063-1.883v34.011a1.817,1.817,0,0,0,1.817,1.817H94.144a1.817,1.817,0,0,0,1.817-1.817V92.634Zm6.643,19.086a1.873,1.873,0,0,1-.958.27q-.611,0-.724-.412L71.7,109.8h-3l-.483,1.775q-.114.412-.724.412a1.872,1.872,0,0,1-.958-.27.753.753,0,0,1-.433-.8l2.641-8.662c.243-.689,1.1-.738,1.448-.738s1.2.082,1.448.738l2.655,8.662C74.409,111.27,74.172,111.541,73.865,111.72Zm9.251-2.783a3.066,3.066,0,0,1-.774,2.322,2.9,2.9,0,0,1-2.08.731H77.109c-.755,0-.965-.487-.965-.667v-9.031c0-.218.162-.682.965-.682H80.02q2.84,0,2.84,2.528a2.17,2.17,0,0,1-1.207,2.229,2.309,2.309,0,0,1,1.093.774,2.525,2.525,0,0,1,.369,1.5Zm5.538,1.207c.946,0,1.188-.834,1.25-1.42q.057-.667,1.093-.667c.885,0,1.122.4,1.122,1.051a2.624,2.624,0,0,1-1,2.172,3.993,3.993,0,0,1-2.563.8,3.653,3.653,0,0,1-2.464-.809,3.17,3.17,0,0,1-.944-2.542v-3.763a3.17,3.17,0,0,1,.944-2.542,3.653,3.653,0,0,1,2.464-.809,4.15,4.15,0,0,1,2.563.753,2.451,2.451,0,0,1,1,2.073c0,.678-.3,1.051-1.108,1.051q-1.065,0-1.108-.667a1.147,1.147,0,0,0-1.264-1.278q-1.278,0-1.278,1.42v3.763q0,1.42,1.292,1.42Z" transform="translate(-63.158 -83.032)" fill="#F32423"></path></svg>