<svg xmlns="http://www.w3.org/2000/svg" width="64.799" height="54.302" viewBox="0 0 64.799 54.302"><path d="M1127.786,4244.4c-3.056,4.812-2.431,14.392-15.234,13.339s-19.572,10.594-14.042,17.9,31.388,18.254,47.081-3.16,5.66-32.838-3.18-33.93S1130.842,4239.59,1127.786,4244.4Z" transform="translate(-1089.015 -4230.721)" fill="#e4efff"></path><path d="M8.025,128.533C3.6,128.533,0,131.593,0,135.354s3.6,6.821,8.025,6.821,8.025-3.06,8.025-6.821S12.45,128.533,8.025,128.533Z" transform="translate(0 -117.473)" fill="#FF4141"></path><path d="M104.01,0H69.853c-3.08,0-5.585,2.129-5.585,4.747V8.568a13.047,13.047,0,0,1,1.519-.089c6.1,0,11.062,4.218,11.062,9.4a8.456,8.456,0,0,1-2.122,5.53,9.377,9.377,0,0,1,.749,1l8.755-7.442a1.714,1.714,0,0,1,2.148,0,1.159,1.159,0,0,1,0,1.825L76.63,27.08a8.054,8.054,0,0,1,.218,1.862v1.291H104.01c3.08,0,5.585-2.13,5.585-4.747V4.747c0-2.618-2.505-4.747-5.585-4.747Z" transform="translate(-57.762 0)" fill="#FF4141"></path><path d="M8.025,296.033a12.3,12.3,0,0,1-6.783-1.98A6.059,6.059,0,0,0,0,297.691v5.53a1.419,1.419,0,0,0,1.519,1.291h.108v7a1.419,1.419,0,0,0,1.519,1.291H12.9a1.419,1.419,0,0,0,1.519-1.291v-7h.108a1.419,1.419,0,0,0,1.519-1.291v-5.53a6.058,6.058,0,0,0-1.242-3.638,12.3,12.3,0,0,1-6.783,1.98Z" transform="translate(0 -268.75)" fill="#FF4141"></path></svg>